<svg width="17" height="16" viewBox="0 0 17 16" fill="none" xmlns="http://www.w3.org/2000/svg">
<g clip-path="url(#clip0_2273_2587)">
<path d="M9.42816 1.37164H12.6286V4.5721" stroke="black" stroke-linecap="round" stroke-linejoin="round"/>
<path d="M12.6286 6.73783V8.91558C12.6286 9.29436 12.3216 9.60139 11.9428 9.60139H5.08468C4.70591 9.60139 4.39886 9.29436 4.39886 8.91558V2.05746C4.39886 1.67869 4.70591 1.37164 5.08468 1.37164H7.14211" stroke="black" stroke-linecap="round" stroke-linejoin="round"/>
<path d="M8.92517 5.07498L12.4228 1.57733" stroke="black" stroke-linecap="round" stroke-linejoin="round"/>
</g>
<path d="M6.085 13.7973H7.708V14.1453H6.085V13.7973ZM7.588 13.7973H7.966C7.966 13.7973 7.966 13.8073 7.966 13.8273C7.966 13.8453 7.966 13.8673 7.966 13.8933C7.966 13.9173 7.965 13.9373 7.963 13.9533C7.955 14.1793 7.946 14.3743 7.936 14.5383C7.926 14.7003 7.914 14.8353 7.9 14.9433C7.888 15.0513 7.873 15.1373 7.855 15.2013C7.837 15.2653 7.815 15.3133 7.789 15.3453C7.749 15.3933 7.707 15.4273 7.663 15.4473C7.621 15.4673 7.571 15.4813 7.513 15.4893C7.463 15.4973 7.397 15.5013 7.315 15.5013C7.233 15.5033 7.147 15.5023 7.057 15.4983C7.055 15.4443 7.043 15.3823 7.021 15.3123C6.999 15.2443 6.972 15.1853 6.94 15.1353C7.024 15.1413 7.102 15.1453 7.174 15.1473C7.246 15.1493 7.3 15.1503 7.336 15.1503C7.364 15.1503 7.387 15.1483 7.405 15.1443C7.423 15.1383 7.441 15.1263 7.459 15.1083C7.483 15.0823 7.502 15.0253 7.516 14.9373C7.532 14.8473 7.546 14.7153 7.558 14.5413C7.57 14.3653 7.58 14.1383 7.588 13.8603V13.7973ZM6.421 12.7323L6.811 12.8463C6.737 13.0203 6.648 13.1883 6.544 13.3503C6.442 13.5123 6.331 13.6613 6.211 13.7973C6.093 13.9333 5.97 14.0513 5.842 14.1513C5.82 14.1253 5.79 14.0943 5.752 14.0583C5.714 14.0203 5.675 13.9833 5.635 13.9473C5.597 13.9113 5.563 13.8823 5.533 13.8603C5.657 13.7763 5.775 13.6763 5.887 13.5603C6.001 13.4423 6.104 13.3133 6.196 13.1733C6.288 13.0313 6.363 12.8843 6.421 12.7323ZM7.564 12.7263C7.612 12.8223 7.67 12.9203 7.738 13.0203C7.806 13.1203 7.88 13.2183 7.96 13.3143C8.042 13.4083 8.125 13.4973 8.209 13.5813C8.295 13.6653 8.379 13.7383 8.461 13.8003C8.429 13.8243 8.393 13.8563 8.353 13.8963C8.315 13.9343 8.278 13.9733 8.242 14.0133C8.208 14.0533 8.179 14.0903 8.155 14.1243C8.071 14.0463 7.986 13.9593 7.9 13.8633C7.814 13.7653 7.729 13.6623 7.645 13.5543C7.563 13.4443 7.485 13.3313 7.411 13.2153C7.337 13.0973 7.27 12.9813 7.21 12.8673L7.564 12.7263ZM6.619 13.8993H7.012C6.998 14.0673 6.975 14.2313 6.943 14.3913C6.911 14.5513 6.858 14.7023 6.784 14.8443C6.712 14.9863 6.607 15.1163 6.469 15.2343C6.333 15.3503 6.153 15.4493 5.929 15.5313C5.915 15.4973 5.895 15.4603 5.869 15.4203C5.843 15.3803 5.815 15.3403 5.785 15.3003C5.755 15.2623 5.725 15.2293 5.695 15.2013C5.897 15.1373 6.057 15.0583 6.175 14.9643C6.293 14.8683 6.382 14.7643 6.442 14.6523C6.502 14.5383 6.543 14.4173 6.565 14.2893C6.589 14.1613 6.607 14.0313 6.619 13.8993ZM8.644 14.6613H11.356V14.9673H8.644V14.6613ZM9.799 12.6933H10.177V13.0983H9.799V12.6933ZM8.938 14.1393H10.735V14.4183H8.938V14.1393ZM9.802 14.5383H10.186V15.1863C10.186 15.2743 10.171 15.3393 10.141 15.3813C10.111 15.4253 10.06 15.4583 9.988 15.4803C9.92 15.4983 9.836 15.5093 9.736 15.5133C9.636 15.5173 9.52 15.5193 9.388 15.5193C9.376 15.4733 9.358 15.4223 9.334 15.3663C9.312 15.3123 9.289 15.2643 9.265 15.2223C9.323 15.2243 9.384 15.2263 9.448 15.2283C9.514 15.2303 9.572 15.2313 9.622 15.2313C9.674 15.2313 9.708 15.2313 9.724 15.2313C9.754 15.2293 9.774 15.2243 9.784 15.2163C9.796 15.2083 9.802 15.1933 9.802 15.1713V14.5383ZM10.657 14.1393H10.756L10.837 14.1243L11.062 14.3223C10.968 14.3783 10.866 14.4333 10.756 14.4873C10.646 14.5413 10.531 14.5913 10.411 14.6373C10.291 14.6833 10.168 14.7233 10.042 14.7573C10.024 14.7293 9.997 14.6963 9.961 14.6583C9.927 14.6183 9.898 14.5873 9.874 14.5653C9.972 14.5373 10.071 14.5033 10.171 14.4633C10.271 14.4213 10.364 14.3783 10.45 14.3343C10.536 14.2883 10.605 14.2453 10.657 14.2053V14.1393ZM9.394 13.6023V13.7703H10.603V13.6023H9.394ZM9.037 13.3563H10.987V14.0193H9.037V13.3563ZM8.689 12.9183H11.308V13.2213H8.689V12.9183Z" fill="white"/>
<defs>
<clipPath id="clip0_2273_2587">
<rect width="10.973" height="10.973" fill="white" transform="translate(3.02722)"/>
</clipPath>
</defs>
</svg>
