<svg width="22" height="16" viewBox="0 0 22 16" fill="none" xmlns="http://www.w3.org/2000/svg">
<g clip-path="url(#clip0_2273_2581)">
<path d="M11.4866 10.0586C14.0117 10.0586 16.0587 8.01161 16.0587 5.48651C16.0587 2.96142 14.0117 0.914429 11.4866 0.914429C8.96148 0.914429 6.91449 2.96142 6.91449 5.48651C6.91449 8.01161 8.96148 10.0586 11.4866 10.0586Z" stroke="#333333" stroke-linejoin="round"/>
<path d="M11.4866 3.65765V7.31532" stroke="#333333" stroke-linecap="round" stroke-linejoin="round"/>
<path d="M9.65771 5.48651H13.3154" stroke="#333333" stroke-linecap="round" stroke-linejoin="round"/>
</g>
<path d="M1.664 14.3793L1.952 14.4783C1.93 14.5683 1.902 14.6593 1.868 14.7513C1.834 14.8413 1.793 14.9273 1.745 15.0093C1.697 15.0893 1.64 15.1613 1.574 15.2253L1.31 15.0153C1.37 14.9653 1.422 14.9063 1.466 14.8383C1.512 14.7703 1.551 14.6973 1.583 14.6193C1.617 14.5393 1.644 14.4593 1.664 14.3793ZM2.378 14.5413L2.642 14.4393C2.694 14.5393 2.74 14.6473 2.78 14.7633C2.82 14.8793 2.848 14.9803 2.864 15.0663L2.579 15.1773C2.573 15.1173 2.56 15.0513 2.54 14.9793C2.52 14.9053 2.496 14.8303 2.468 14.7543C2.44 14.6763 2.41 14.6053 2.378 14.5413ZM2.753 14.4783L3.032 14.3403C3.092 14.4143 3.149 14.4953 3.203 14.5833C3.257 14.6713 3.305 14.7583 3.347 14.8443C3.391 14.9283 3.424 15.0053 3.446 15.0753L3.146 15.2343C3.128 15.1643 3.098 15.0853 3.056 14.9973C3.016 14.9093 2.969 14.8203 2.915 14.7303C2.863 14.6383 2.809 14.5543 2.753 14.4783ZM2.75 13.5633C2.796 13.6453 2.854 13.7243 2.924 13.8003C2.996 13.8763 3.077 13.9443 3.167 14.0043C3.257 14.0643 3.352 14.1123 3.452 14.1483C3.428 14.1703 3.4 14.1983 3.368 14.2323C3.338 14.2663 3.309 14.3013 3.281 14.3373C3.255 14.3733 3.233 14.4063 3.215 14.4363C3.105 14.3863 3.001 14.3223 2.903 14.2443C2.807 14.1643 2.72 14.0753 2.642 13.9773C2.566 13.8773 2.5 13.7723 2.444 13.6623L2.75 13.5633ZM2.117 13.0863L2.48 13.1403C2.402 13.4643 2.28 13.7363 2.114 13.9563C1.948 14.1743 1.733 14.3473 1.469 14.4753C1.455 14.4513 1.434 14.4213 1.406 14.3853C1.378 14.3473 1.348 14.3113 1.316 14.2773C1.286 14.2413 1.258 14.2123 1.232 14.1903C1.476 14.0903 1.671 13.9493 1.817 13.7673C1.963 13.5833 2.063 13.3563 2.117 13.0863ZM2.987 12.7113L3.257 12.9963C3.137 13.0303 3.006 13.0593 2.864 13.0833C2.724 13.1073 2.578 13.1283 2.426 13.1463C2.276 13.1623 2.125 13.1743 1.973 13.1823C1.821 13.1903 1.673 13.1963 1.529 13.2003C1.523 13.1563 1.51 13.1043 1.49 13.0443C1.472 12.9823 1.454 12.9313 1.436 12.8913C1.574 12.8873 1.715 12.8803 1.859 12.8703C2.003 12.8603 2.143 12.8483 2.279 12.8343C2.417 12.8203 2.547 12.8033 2.669 12.7833C2.791 12.7633 2.897 12.7393 2.987 12.7113ZM1.352 13.4073H3.365V13.7313H1.352V13.4073ZM2.036 14.0823H2.366V15.1533C2.366 15.2313 2.358 15.2933 2.342 15.3393C2.326 15.3873 2.292 15.4253 2.24 15.4533C2.19 15.4773 2.13 15.4923 2.06 15.4983C1.992 15.5043 1.91 15.5073 1.814 15.5073C1.808 15.4593 1.796 15.4053 1.778 15.3453C1.762 15.2873 1.744 15.2343 1.724 15.1863C1.78 15.1883 1.834 15.1893 1.886 15.1893C1.938 15.1893 1.972 15.1893 1.988 15.1893C2.02 15.1893 2.036 15.1753 2.036 15.1473V14.0823ZM0.725 12.9723L0.926 12.7113C0.984 12.7353 1.044 12.7643 1.106 12.7983C1.17 12.8303 1.23 12.8643 1.286 12.9003C1.344 12.9363 1.39 12.9713 1.424 13.0053L1.208 13.2933C1.176 13.2573 1.133 13.2203 1.079 13.1823C1.025 13.1443 0.967 13.1073 0.905 13.0713C0.843 13.0333 0.783 13.0003 0.725 12.9723ZM0.584 13.7883L0.782 13.5213C0.84 13.5433 0.9 13.5703 0.962 13.6023C1.026 13.6323 1.086 13.6643 1.142 13.6983C1.2 13.7323 1.247 13.7653 1.283 13.7973L1.07 14.0883C1.038 14.0563 0.994 14.0223 0.938 13.9863C0.884 13.9483 0.825 13.9123 0.761 13.8783C0.699 13.8423 0.64 13.8123 0.584 13.7883ZM0.644 15.2823C0.686 15.2043 0.731 15.1133 0.779 15.0093C0.829 14.9053 0.878 14.7953 0.926 14.6793C0.976 14.5613 1.023 14.4443 1.067 14.3283L1.355 14.5293C1.317 14.6333 1.276 14.7403 1.232 14.8503C1.19 14.9583 1.147 15.0663 1.103 15.1743C1.059 15.2803 1.015 15.3823 0.971 15.4803L0.644 15.2823ZM5.339 14.8953H6.107V15.2403H5.339V14.8953ZM3.65 13.2333H4.748V13.5843H3.65V13.2333ZM5.177 13.0383H6.269V15.4293H5.909V13.3863H5.522V15.4503H5.177V13.0383ZM4.661 13.2333H5.009C5.009 13.2333 5.009 13.2443 5.009 13.2663C5.009 13.2863 5.009 13.3093 5.009 13.3353C5.009 13.3613 5.008 13.3823 5.006 13.3983C5 13.7183 4.993 13.9913 4.985 14.2173C4.979 14.4413 4.971 14.6253 4.961 14.7693C4.953 14.9133 4.941 15.0263 4.925 15.1083C4.909 15.1903 4.889 15.2483 4.865 15.2823C4.831 15.3323 4.796 15.3683 4.76 15.3903C4.724 15.4123 4.681 15.4283 4.631 15.4383C4.587 15.4483 4.533 15.4533 4.469 15.4533C4.405 15.4553 4.338 15.4543 4.268 15.4503C4.266 15.3983 4.256 15.3373 4.238 15.2673C4.22 15.1993 4.196 15.1403 4.166 15.0903C4.226 15.0943 4.281 15.0973 4.331 15.0993C4.381 15.1013 4.42 15.1023 4.448 15.1023C4.47 15.1023 4.489 15.0983 4.505 15.0903C4.521 15.0823 4.536 15.0673 4.55 15.0453C4.566 15.0233 4.58 14.9773 4.592 14.9073C4.604 14.8373 4.614 14.7353 4.622 14.6013C4.63 14.4673 4.637 14.2953 4.643 14.0853C4.649 13.8733 4.655 13.6153 4.661 13.3113V13.2333ZM4.007 12.7383H4.361C4.361 13.0343 4.356 13.3173 4.346 13.5873C4.338 13.8553 4.318 14.1073 4.286 14.3433C4.254 14.5793 4.201 14.7963 4.127 14.9943C4.055 15.1903 3.954 15.3633 3.824 15.5133C3.806 15.4833 3.782 15.4513 3.752 15.4173C3.722 15.3833 3.69 15.3513 3.656 15.3213C3.622 15.2913 3.59 15.2673 3.56 15.2493C3.654 15.1433 3.729 15.0243 3.785 14.8923C3.843 14.7583 3.887 14.6123 3.917 14.4543C3.949 14.2963 3.971 14.1273 3.983 13.9473C3.995 13.7653 4.002 13.5733 4.004 13.3713C4.006 13.1673 4.007 12.9563 4.007 12.7383ZM7.187 12.8613H8.039V13.2273H7.187V12.8613ZM7.862 12.8613H8.234C8.234 12.9573 8.238 13.0663 8.246 13.1883C8.254 13.3083 8.271 13.4373 8.297 13.5753C8.323 13.7113 8.362 13.8513 8.414 13.9953C8.466 14.1393 8.535 14.2823 8.621 14.4243C8.709 14.5643 8.819 14.6993 8.951 14.8293C9.083 14.9593 9.241 15.0793 9.425 15.1893C9.399 15.2093 9.367 15.2383 9.329 15.2763C9.291 15.3143 9.254 15.3533 9.218 15.3933C9.184 15.4353 9.156 15.4723 9.134 15.5043C8.946 15.3883 8.783 15.2583 8.645 15.1143C8.507 14.9683 8.391 14.8143 8.297 14.6523C8.203 14.4883 8.127 14.3233 8.069 14.1573C8.011 13.9893 7.967 13.8263 7.937 13.6683C7.907 13.5083 7.887 13.3593 7.877 13.2213C7.867 13.0833 7.862 12.9633 7.862 12.8613ZM7.733 13.5213L8.144 13.5963C8.076 13.8923 7.985 14.1613 7.871 14.4033C7.757 14.6453 7.62 14.8583 7.46 15.0423C7.302 15.2263 7.119 15.3813 6.911 15.5073C6.889 15.4813 6.858 15.4493 6.818 15.4113C6.778 15.3753 6.736 15.3383 6.692 15.3003C6.65 15.2643 6.613 15.2353 6.581 15.2133C6.895 15.0553 7.145 14.8333 7.331 14.5473C7.517 14.2593 7.651 13.9173 7.733 13.5213ZM11.615 12.9603L11.885 12.7773C11.939 12.8233 11.994 12.8753 12.05 12.9333C12.108 12.9893 12.162 13.0463 12.212 13.1043C12.264 13.1603 12.304 13.2123 12.332 13.2603L12.041 13.4613C12.017 13.4133 11.981 13.3603 11.933 13.3023C11.887 13.2423 11.836 13.1833 11.78 13.1253C11.724 13.0653 11.669 13.0103 11.615 12.9603ZM9.65 13.5483H12.356V13.8873H9.65V13.5483ZM9.593 14.3943C9.713 14.3763 9.853 14.3543 10.013 14.3283C10.173 14.3023 10.342 14.2733 10.52 14.2413C10.7 14.2093 10.877 14.1783 11.051 14.1483L11.075 14.4723C10.915 14.5063 10.752 14.5403 10.586 14.5743C10.422 14.6083 10.262 14.6413 10.106 14.6733C9.952 14.7033 9.81 14.7313 9.68 14.7573L9.593 14.3943ZM10.217 13.0623H10.58V15.0903C10.58 15.1883 10.568 15.2643 10.544 15.3183C10.522 15.3723 10.481 15.4133 10.421 15.4413C10.361 15.4693 10.286 15.4873 10.196 15.4953C10.106 15.5053 9.999 15.5103 9.875 15.5103C9.871 15.4763 9.862 15.4373 9.848 15.3933C9.834 15.3493 9.818 15.3053 9.8 15.2613C9.784 15.2173 9.767 15.1793 9.749 15.1473C9.833 15.1513 9.914 15.1533 9.992 15.1533C10.07 15.1533 10.122 15.1523 10.148 15.1503C10.174 15.1503 10.192 15.1463 10.202 15.1383C10.212 15.1283 10.217 15.1113 10.217 15.0873V13.0623ZM10.832 12.7143L11.078 13.0203C10.948 13.0603 10.807 13.0963 10.655 13.1283C10.503 13.1583 10.348 13.1853 10.19 13.2093C10.034 13.2333 9.883 13.2533 9.737 13.2693C9.731 13.2273 9.717 13.1763 9.695 13.1163C9.675 13.0563 9.655 13.0063 9.635 12.9663C9.775 12.9483 9.918 12.9263 10.064 12.9003C10.21 12.8743 10.349 12.8453 10.481 12.8133C10.613 12.7813 10.73 12.7483 10.832 12.7143ZM11.129 12.7173H11.504C11.5 12.9593 11.506 13.1983 11.522 13.4343C11.54 13.6703 11.566 13.8923 11.6 14.1003C11.634 14.3063 11.674 14.4893 11.72 14.6493C11.766 14.8073 11.815 14.9313 11.867 15.0213C11.919 15.1113 11.973 15.1563 12.029 15.1563C12.061 15.1563 12.085 15.1173 12.101 15.0393C12.119 14.9613 12.132 14.8333 12.14 14.6553C12.178 14.6953 12.225 14.7353 12.281 14.7753C12.337 14.8133 12.389 14.8423 12.437 14.8623C12.417 15.0383 12.39 15.1733 12.356 15.2673C12.322 15.3633 12.275 15.4293 12.215 15.4653C12.157 15.5033 12.083 15.5223 11.993 15.5223C11.889 15.5223 11.795 15.4843 11.711 15.4083C11.629 15.3343 11.556 15.2303 11.492 15.0963C11.43 14.9623 11.376 14.8063 11.33 14.6283C11.286 14.4483 11.249 14.2543 11.219 14.0463C11.189 13.8363 11.167 13.6183 11.153 13.3923C11.139 13.1663 11.131 12.9413 11.129 12.7173ZM11.945 13.9863L12.26 14.1243C12.158 14.3103 12.037 14.4833 11.897 14.6433C11.757 14.8033 11.604 14.9483 11.438 15.0783C11.272 15.2063 11.098 15.3183 10.916 15.4143C10.89 15.3703 10.854 15.3213 10.808 15.2673C10.764 15.2133 10.719 15.1663 10.673 15.1263C10.845 15.0463 11.011 14.9493 11.171 14.8353C11.333 14.7213 11.48 14.5923 11.612 14.4483C11.744 14.3043 11.855 14.1503 11.945 13.9863ZM12.929 13.1823H13.85V15.2013H12.929V14.8863H13.526V13.4943H12.929V13.1823ZM12.719 13.1823H13.046V15.4233H12.719V13.1823ZM12.917 13.9833H13.682V14.2953H12.917V13.9833ZM13.148 12.6933L13.538 12.7503C13.506 12.8523 13.471 12.9533 13.433 13.0533C13.397 13.1533 13.364 13.2383 13.334 13.3083L13.046 13.2423C13.06 13.1903 13.073 13.1323 13.085 13.0683C13.099 13.0043 13.112 12.9393 13.124 12.8733C13.136 12.8073 13.144 12.7473 13.148 12.6933ZM14.246 13.1583H15.125V13.4883H14.246V13.1583ZM14.999 13.1583H15.332C15.332 13.1583 15.332 13.1693 15.332 13.1913C15.332 13.2113 15.332 13.2343 15.332 13.2603C15.332 13.2863 15.331 13.3063 15.329 13.3203C15.321 13.6583 15.311 13.9453 15.299 14.1813C15.289 14.4153 15.276 14.6093 15.26 14.7633C15.246 14.9153 15.229 15.0343 15.209 15.1203C15.189 15.2063 15.163 15.2693 15.131 15.3093C15.091 15.3673 15.048 15.4073 15.002 15.4293C14.956 15.4513 14.903 15.4673 14.843 15.4773C14.785 15.4853 14.713 15.4883 14.627 15.4863C14.543 15.4863 14.457 15.4853 14.369 15.4833C14.367 15.4333 14.355 15.3743 14.333 15.3063C14.311 15.2403 14.284 15.1823 14.252 15.1323C14.348 15.1403 14.437 15.1453 14.519 15.1473C14.603 15.1493 14.664 15.1503 14.702 15.1503C14.732 15.1503 14.756 15.1473 14.774 15.1413C14.794 15.1333 14.813 15.1193 14.831 15.0993C14.857 15.0733 14.878 15.0203 14.894 14.9403C14.912 14.8583 14.927 14.7433 14.939 14.5953C14.951 14.4473 14.962 14.2603 14.972 14.0343C14.982 13.8083 14.991 13.5393 14.999 13.2273V13.1583ZM14.255 12.6963L14.603 12.7773C14.565 12.9233 14.518 13.0693 14.462 13.2153C14.408 13.3613 14.348 13.4993 14.282 13.6293C14.218 13.7573 14.152 13.8693 14.084 13.9653C14.064 13.9453 14.035 13.9223 13.997 13.8963C13.961 13.8683 13.924 13.8413 13.886 13.8153C13.85 13.7893 13.818 13.7693 13.79 13.7553C13.856 13.6693 13.918 13.5703 13.976 13.4583C14.036 13.3443 14.089 13.2223 14.135 13.0923C14.183 12.9603 14.223 12.8283 14.255 12.6963ZM14.108 14.0253L14.39 13.8663C14.44 13.9343 14.493 14.0093 14.549 14.0913C14.605 14.1733 14.658 14.2533 14.708 14.3313C14.758 14.4093 14.799 14.4783 14.831 14.5383L14.525 14.7243C14.497 14.6623 14.459 14.5913 14.411 14.5113C14.365 14.4313 14.315 14.3493 14.261 14.2653C14.209 14.1793 14.158 14.0993 14.108 14.0253ZM16.841 12.8643H18.305V13.2093H16.841V12.8643ZM17.6 13.8003H17.969V15.0963C17.969 15.1903 17.957 15.2643 17.933 15.3183C17.911 15.3743 17.867 15.4163 17.801 15.4443C17.735 15.4703 17.654 15.4863 17.558 15.4923C17.462 15.5003 17.347 15.5043 17.213 15.5043C17.205 15.4523 17.19 15.3903 17.168 15.3183C17.148 15.2483 17.126 15.1883 17.102 15.1383C17.16 15.1403 17.218 15.1423 17.276 15.1443C17.334 15.1463 17.386 15.1473 17.432 15.1473C17.478 15.1453 17.51 15.1443 17.528 15.1443C17.556 15.1443 17.575 15.1403 17.585 15.1323C17.595 15.1223 17.6 15.1073 17.6 15.0873V13.8003ZM16.712 13.6983H18.383V14.0403H16.712V13.6983ZM16.037 14.0523L16.352 13.7343L16.397 13.7523V15.5163H16.037V14.0523ZM16.376 13.3473L16.718 13.4793C16.64 13.6113 16.549 13.7443 16.445 13.8783C16.343 14.0103 16.235 14.1353 16.121 14.2533C16.009 14.3713 15.899 14.4743 15.791 14.5623C15.775 14.5363 15.752 14.5043 15.722 14.4663C15.692 14.4263 15.661 14.3863 15.629 14.3463C15.599 14.3063 15.571 14.2743 15.545 14.2503C15.649 14.1783 15.752 14.0943 15.854 13.9983C15.956 13.9003 16.052 13.7963 16.142 13.6863C16.232 13.5743 16.31 13.4613 16.376 13.3473ZM16.262 12.6933L16.61 12.8373C16.536 12.9313 16.453 13.0273 16.361 13.1253C16.269 13.2213 16.173 13.3133 16.073 13.4013C15.973 13.4893 15.875 13.5663 15.779 13.6323C15.765 13.6043 15.746 13.5723 15.722 13.5363C15.698 13.4983 15.673 13.4613 15.647 13.4253C15.623 13.3893 15.6 13.3593 15.578 13.3353C15.662 13.2833 15.747 13.2203 15.833 13.1463C15.919 13.0723 16 12.9963 16.076 12.9183C16.152 12.8383 16.214 12.7633 16.262 12.6933ZM20.378 14.1393H20.738V15.3483H20.378V14.1393ZM19.781 14.0073H21.341V14.3163H19.781V14.0073ZM19.664 15.1323H21.407V15.4473H19.664V15.1323ZM19.853 14.5653H21.269V14.8683H19.853V14.5653ZM20.21 13.1103V13.5243H20.912V13.1103H20.21ZM19.877 12.8073H21.26V13.8273H19.877V12.8073ZM19.055 12.9753H19.403V15.5103H19.055V12.9753ZM18.623 13.5393H19.724V13.8723H18.623V13.5393ZM19.073 13.6743L19.283 13.7643C19.255 13.8723 19.221 13.9843 19.181 14.1003C19.141 14.2163 19.097 14.3313 19.049 14.4453C19.001 14.5573 18.95 14.6633 18.896 14.7633C18.842 14.8633 18.786 14.9503 18.728 15.0243C18.71 14.9723 18.684 14.9143 18.65 14.8503C18.618 14.7843 18.588 14.7283 18.56 14.6823C18.612 14.6223 18.663 14.5523 18.713 14.4723C18.765 14.3903 18.814 14.3033 18.86 14.2113C18.906 14.1193 18.947 14.0273 18.983 13.9353C19.019 13.8433 19.049 13.7563 19.073 13.6743ZM19.52 12.7263L19.763 13.0023C19.661 13.0403 19.549 13.0753 19.427 13.1073C19.305 13.1393 19.18 13.1673 19.052 13.1913C18.926 13.2133 18.805 13.2323 18.689 13.2483C18.681 13.2083 18.667 13.1623 18.647 13.1103C18.627 13.0563 18.607 13.0103 18.587 12.9723C18.697 12.9543 18.809 12.9333 18.923 12.9093C19.039 12.8833 19.148 12.8543 19.25 12.8223C19.354 12.7903 19.444 12.7583 19.52 12.7263ZM19.397 13.9563C19.415 13.9703 19.442 13.9963 19.478 14.0343C19.516 14.0703 19.556 14.1103 19.598 14.1543C19.642 14.1983 19.681 14.2393 19.715 14.2773C19.749 14.3133 19.774 14.3393 19.79 14.3553L19.583 14.6403C19.565 14.6023 19.541 14.5593 19.511 14.5113C19.483 14.4633 19.452 14.4133 19.418 14.3613C19.386 14.3093 19.354 14.2603 19.322 14.2143C19.29 14.1663 19.262 14.1273 19.238 14.0973L19.397 13.9563Z" fill="white"/>
<defs>
<clipPath id="clip0_2273_2581">
<rect width="10.973" height="10.973" fill="white" transform="translate(6.00006)"/>
</clipPath>
</defs>
</svg>
