<svg width="57" height="41" viewBox="0 0 57 41" fill="none" xmlns="http://www.w3.org/2000/svg">
<path d="M28.1627 26.0135C34.6809 26.0135 39.965 20.7196 39.965 14.1892C39.965 7.6588 34.6809 2.36487 28.1627 2.36487C21.6444 2.36487 16.3604 7.6588 16.3604 14.1892C16.3604 20.7196 21.6444 26.0135 28.1627 26.0135Z" stroke="#333333" stroke-width="2" stroke-linejoin="round"/>
<path d="M28.1628 9.45947V18.9189" stroke="#333333" stroke-width="2" stroke-linecap="round" stroke-linejoin="round"/>
<path d="M23.4419 14.1892H32.8838" stroke="#333333" stroke-width="2" stroke-linecap="round" stroke-linejoin="round"/>
<path d="M3.49928 37.765L4.26728 38.029C4.20861 38.269 4.13394 38.5116 4.04328 38.757C3.95261 38.997 3.84328 39.2263 3.71528 39.445C3.58728 39.6583 3.43528 39.8503 3.25928 40.021L2.55528 39.461C2.71528 39.3276 2.85394 39.1703 2.97128 38.989C3.09394 38.8076 3.19794 38.613 3.28328 38.405C3.37394 38.1916 3.44594 37.9783 3.49928 37.765ZM5.40328 38.197L6.10728 37.925C6.24594 38.1916 6.36861 38.4796 6.47528 38.789C6.58194 39.0983 6.65661 39.3676 6.69928 39.597L5.93928 39.893C5.92328 39.733 5.88861 39.557 5.83528 39.365C5.78194 39.1676 5.71794 38.9676 5.64328 38.765C5.56861 38.557 5.48861 38.3676 5.40328 38.197ZM6.40328 38.029L7.14728 37.661C7.30728 37.8583 7.45928 38.0743 7.60328 38.309C7.74728 38.5436 7.87528 38.7756 7.98728 39.005C8.10461 39.229 8.19261 39.4343 8.25128 39.621L7.45128 40.045C7.40328 39.8583 7.32328 39.6476 7.21128 39.413C7.10461 39.1783 6.97928 38.941 6.83528 38.701C6.69661 38.4556 6.55261 38.2316 6.40328 38.029ZM6.39528 35.589C6.51794 35.8076 6.67261 36.0183 6.85928 36.221C7.05128 36.4236 7.26728 36.605 7.50728 36.765C7.74728 36.925 8.00061 37.053 8.26728 37.149C8.20328 37.2076 8.12861 37.2823 8.04328 37.373C7.96328 37.4636 7.88594 37.557 7.81128 37.653C7.74194 37.749 7.68328 37.837 7.63528 37.917C7.34194 37.7836 7.06461 37.613 6.80328 37.405C6.54728 37.1916 6.31528 36.9543 6.10728 36.693C5.90461 36.4263 5.72861 36.1463 5.57928 35.853L6.39528 35.589ZM4.70728 34.317L5.67528 34.461C5.46728 35.325 5.14194 36.0503 4.69928 36.637C4.25661 37.2183 3.68328 37.6796 2.97928 38.021C2.94194 37.957 2.88594 37.877 2.81128 37.781C2.73661 37.6796 2.65661 37.5836 2.57128 37.493C2.49128 37.397 2.41661 37.3196 2.34728 37.261C2.99794 36.9943 3.51794 36.6183 3.90728 36.133C4.29661 35.6423 4.56328 35.037 4.70728 34.317ZM7.02728 33.317L7.74728 34.077C7.42728 34.1676 7.07794 34.245 6.69928 34.309C6.32594 34.373 5.93661 34.429 5.53128 34.477C5.13128 34.5196 4.72861 34.5516 4.32328 34.573C3.91794 34.5943 3.52328 34.6103 3.13928 34.621C3.12328 34.5036 3.08861 34.365 3.03528 34.205C2.98728 34.0396 2.93928 33.9036 2.89128 33.797C3.25928 33.7863 3.63528 33.7676 4.01928 33.741C4.40328 33.7143 4.77661 33.6823 5.13928 33.645C5.50728 33.6076 5.85394 33.5623 6.17928 33.509C6.50461 33.4556 6.78728 33.3916 7.02728 33.317ZM2.66728 35.173H8.03528V36.037H2.66728V35.173ZM4.49128 36.973H5.37128V39.829C5.37128 40.037 5.34994 40.2023 5.30728 40.325C5.26461 40.453 5.17394 40.5543 5.03528 40.629C4.90194 40.693 4.74194 40.733 4.55528 40.749C4.37394 40.765 4.15528 40.773 3.89928 40.773C3.88328 40.645 3.85128 40.501 3.80328 40.341C3.76061 40.1863 3.71261 40.045 3.65928 39.917C3.80861 39.9223 3.95261 39.925 4.09128 39.925C4.22994 39.925 4.32061 39.925 4.36328 39.925C4.44861 39.925 4.49128 39.8876 4.49128 39.813V36.973ZM0.995275 34.013L1.53128 33.317C1.68594 33.381 1.84594 33.4583 2.01128 33.549C2.18194 33.6343 2.34194 33.725 2.49128 33.821C2.64594 33.917 2.76861 34.0103 2.85928 34.101L2.28328 34.869C2.19794 34.773 2.08328 34.6743 1.93928 34.573C1.79528 34.4716 1.64061 34.373 1.47528 34.277C1.30994 34.1756 1.14994 34.0876 0.995275 34.013ZM0.619275 36.189L1.14728 35.477C1.30194 35.5356 1.46194 35.6076 1.62728 35.693C1.79794 35.773 1.95794 35.8583 2.10728 35.949C2.26194 36.0396 2.38728 36.1276 2.48328 36.213L1.91528 36.989C1.82994 36.9036 1.71261 36.813 1.56328 36.717C1.41928 36.6156 1.26194 36.5196 1.09128 36.429C0.925942 36.333 0.768608 36.253 0.619275 36.189ZM0.779275 40.173C0.891275 39.965 1.01128 39.7223 1.13928 39.445C1.27261 39.1676 1.40328 38.8743 1.53128 38.565C1.66461 38.2503 1.78994 37.9383 1.90728 37.629L2.67528 38.165C2.57394 38.4423 2.46461 38.7276 2.34728 39.021C2.23528 39.309 2.12061 39.597 2.00328 39.885C1.88594 40.1676 1.76861 40.4396 1.65128 40.701L0.779275 40.173ZM13.2993 39.141H15.3473V40.061H13.2993V39.141ZM8.79528 34.709H11.7233V35.645H8.79528V34.709ZM12.8673 34.189H15.7793V40.565H14.8193V35.117H13.7873V40.621H12.8673V34.189ZM11.4913 34.709H12.4193C12.4193 34.709 12.4193 34.7383 12.4193 34.797C12.4193 34.8503 12.4193 34.9116 12.4193 34.981C12.4193 35.0503 12.4166 35.1063 12.4113 35.149C12.3953 36.0023 12.3766 36.7303 12.3553 37.333C12.3393 37.9303 12.3179 38.421 12.2913 38.805C12.2699 39.189 12.2379 39.4903 12.1953 39.709C12.1526 39.9276 12.0993 40.0823 12.0353 40.173C11.9446 40.3063 11.8513 40.4023 11.7553 40.461C11.6593 40.5196 11.5446 40.5623 11.4113 40.589C11.2939 40.6156 11.1499 40.629 10.9793 40.629C10.8086 40.6343 10.6299 40.6316 10.4433 40.621C10.4379 40.4823 10.4113 40.3196 10.3633 40.133C10.3153 39.9516 10.2513 39.7943 10.1713 39.661C10.3313 39.6716 10.4779 39.6796 10.6113 39.685C10.7446 39.6903 10.8486 39.693 10.9233 39.693C10.9819 39.693 11.0326 39.6823 11.0753 39.661C11.1179 39.6396 11.1579 39.5996 11.1953 39.541C11.2379 39.4823 11.2753 39.3596 11.3073 39.173C11.3393 38.9863 11.3659 38.7143 11.3873 38.357C11.4086 37.9996 11.4273 37.541 11.4433 36.981C11.4593 36.4156 11.4753 35.7276 11.4913 34.917V34.709ZM9.74728 33.389H10.6913C10.6913 34.1783 10.6779 34.933 10.6513 35.653C10.6299 36.3676 10.5766 37.0396 10.4913 37.669C10.4059 38.2983 10.2646 38.877 10.0673 39.405C9.87528 39.9276 9.60594 40.389 9.25928 40.789C9.21128 40.709 9.14728 40.6236 9.06728 40.533C8.98728 40.4423 8.90194 40.357 8.81128 40.277C8.72061 40.197 8.63528 40.133 8.55528 40.085C8.80594 39.8023 9.00594 39.485 9.15528 39.133C9.30994 38.7756 9.42728 38.3863 9.50728 37.965C9.59261 37.5436 9.65128 37.093 9.68328 36.613C9.71528 36.1276 9.73394 35.6156 9.73928 35.077C9.74461 34.533 9.74728 33.9703 9.74728 33.389ZM18.2273 33.717H20.4993V34.693H18.2273V33.717ZM20.0273 33.717H21.0193C21.0193 33.973 21.0299 34.2636 21.0513 34.589C21.0726 34.909 21.1179 35.253 21.1873 35.621C21.2566 35.9836 21.3606 36.357 21.4993 36.741C21.6379 37.125 21.8219 37.5063 22.0513 37.885C22.2859 38.2583 22.5793 38.6183 22.9313 38.965C23.2833 39.3116 23.7046 39.6316 24.1953 39.925C24.1259 39.9783 24.0406 40.0556 23.9393 40.157C23.8379 40.2583 23.7393 40.3623 23.6433 40.469C23.5526 40.581 23.4779 40.6796 23.4193 40.765C22.9179 40.4556 22.4833 40.109 22.1153 39.725C21.7473 39.3356 21.4379 38.925 21.1873 38.493C20.9366 38.0556 20.7339 37.6156 20.5793 37.173C20.4246 36.725 20.3073 36.2903 20.2273 35.869C20.1473 35.4423 20.0939 35.045 20.0673 34.677C20.0406 34.309 20.0273 33.989 20.0273 33.717ZM19.6833 35.477L20.7793 35.677C20.5979 36.4663 20.3553 37.1836 20.0513 37.829C19.7473 38.4743 19.3819 39.0423 18.9553 39.533C18.5339 40.0236 18.0459 40.437 17.4913 40.773C17.4326 40.7036 17.3499 40.6183 17.2433 40.517C17.1366 40.421 17.0246 40.3223 16.9073 40.221C16.7953 40.125 16.6966 40.0476 16.6113 39.989C17.4486 39.5676 18.1153 38.9756 18.6113 38.213C19.1073 37.445 19.4646 36.533 19.6833 35.477ZM30.0353 33.981L30.7553 33.493C30.8993 33.6156 31.0459 33.7543 31.1953 33.909C31.3499 34.0583 31.4939 34.2103 31.6273 34.365C31.7659 34.5143 31.8726 34.653 31.9473 34.781L31.1713 35.317C31.1073 35.189 31.0113 35.0476 30.8833 34.893C30.7606 34.733 30.6246 34.5756 30.4753 34.421C30.3259 34.261 30.1793 34.1143 30.0353 33.981ZM24.7953 35.549H32.0113V36.453H24.7953V35.549ZM24.6433 37.805C24.9633 37.757 25.3366 37.6983 25.7633 37.629C26.1899 37.5596 26.6406 37.4823 27.1153 37.397C27.5953 37.3116 28.0673 37.229 28.5313 37.149L28.5953 38.013C28.1686 38.1036 27.7339 38.1943 27.2913 38.285C26.8539 38.3756 26.4273 38.4636 26.0113 38.549C25.6006 38.629 25.2219 38.7036 24.8753 38.773L24.6433 37.805ZM26.3073 34.253H27.2753V39.661C27.2753 39.9223 27.2433 40.125 27.1793 40.269C27.1206 40.413 27.0113 40.5223 26.8513 40.597C26.6913 40.6716 26.4913 40.7196 26.2513 40.741C26.0113 40.7676 25.7259 40.781 25.3953 40.781C25.3846 40.6903 25.3606 40.5863 25.3233 40.469C25.2859 40.3516 25.2433 40.2343 25.1953 40.117C25.1526 39.9996 25.1073 39.8983 25.0593 39.813C25.2833 39.8236 25.4993 39.829 25.7073 39.829C25.9153 39.829 26.0539 39.8263 26.1233 39.821C26.1926 39.821 26.2406 39.8103 26.2673 39.789C26.2939 39.7623 26.3073 39.717 26.3073 39.653V34.253ZM27.9473 33.325L28.6033 34.141C28.2566 34.2476 27.8806 34.3436 27.4753 34.429C27.0699 34.509 26.6566 34.581 26.2353 34.645C25.8193 34.709 25.4166 34.7623 25.0273 34.805C25.0113 34.693 24.9739 34.557 24.9153 34.397C24.8619 34.237 24.8086 34.1036 24.7553 33.997C25.1286 33.949 25.5099 33.8903 25.8993 33.821C26.2886 33.7516 26.6593 33.6743 27.0113 33.589C27.3633 33.5036 27.6753 33.4156 27.9473 33.325ZM28.7393 33.333H29.7393C29.7286 33.9783 29.7446 34.6156 29.7873 35.245C29.8353 35.8743 29.9046 36.4663 29.9953 37.021C30.0859 37.5703 30.1926 38.0583 30.3153 38.485C30.4379 38.9063 30.5686 39.237 30.7073 39.477C30.8459 39.717 30.9899 39.837 31.1393 39.837C31.2246 39.837 31.2886 39.733 31.3313 39.525C31.3793 39.317 31.4139 38.9756 31.4353 38.501C31.5366 38.6076 31.6619 38.7143 31.8113 38.821C31.9606 38.9223 32.0993 38.9996 32.2273 39.053C32.1739 39.5223 32.1019 39.8823 32.0113 40.133C31.9206 40.389 31.7953 40.565 31.6353 40.661C31.4806 40.7623 31.2833 40.813 31.0433 40.813C30.7659 40.813 30.5153 40.7116 30.2913 40.509C30.0726 40.3116 29.8779 40.0343 29.7073 39.677C29.5419 39.3196 29.3979 38.9036 29.2753 38.429C29.1579 37.949 29.0593 37.4316 28.9793 36.877C28.8993 36.317 28.8406 35.7356 28.8033 35.133C28.7659 34.5303 28.7446 33.9303 28.7393 33.333ZM30.9153 36.717L31.7553 37.085C31.4833 37.581 31.1606 38.0423 30.7873 38.469C30.4139 38.8956 30.0059 39.2823 29.5633 39.629C29.1206 39.9703 28.6566 40.269 28.1713 40.525C28.1019 40.4076 28.0059 40.277 27.8833 40.133C27.7659 39.989 27.6459 39.8636 27.5233 39.757C27.9819 39.5436 28.4246 39.285 28.8513 38.981C29.2833 38.677 29.6753 38.333 30.0273 37.949C30.3793 37.565 30.6753 37.1543 30.9153 36.717ZM33.5393 34.573H35.9953V39.957H33.5393V39.117H35.1313V35.405H33.5393V34.573ZM32.9793 34.573H33.8513V40.549H32.9793V34.573ZM33.5073 36.709H35.5473V37.541H33.5073V36.709ZM34.1233 33.269L35.1633 33.421C35.0779 33.693 34.9846 33.9623 34.8833 34.229C34.7873 34.4956 34.6993 34.7223 34.6193 34.909L33.8513 34.733C33.8886 34.5943 33.9233 34.4396 33.9553 34.269C33.9926 34.0983 34.0273 33.925 34.0593 33.749C34.0913 33.573 34.1126 33.413 34.1233 33.269ZM37.0513 34.509H39.3953V35.389H37.0513V34.509ZM39.0593 34.509H39.9473C39.9473 34.509 39.9473 34.5383 39.9473 34.597C39.9473 34.6503 39.9473 34.7116 39.9473 34.781C39.9473 34.8503 39.9446 34.9036 39.9393 34.941C39.9179 35.8423 39.8913 36.6076 39.8593 37.237C39.8326 37.861 39.7979 38.3783 39.7553 38.789C39.7179 39.1943 39.6726 39.5116 39.6193 39.741C39.5659 39.9703 39.4966 40.1383 39.4113 40.245C39.3046 40.3996 39.1899 40.5063 39.0673 40.565C38.9446 40.6236 38.8033 40.6663 38.6433 40.693C38.4886 40.7143 38.2966 40.7223 38.0673 40.717C37.8433 40.717 37.6139 40.7143 37.3793 40.709C37.3739 40.5756 37.3419 40.4183 37.2833 40.237C37.2246 40.061 37.1526 39.9063 37.0673 39.773C37.3233 39.7943 37.5606 39.8076 37.7793 39.813C38.0033 39.8183 38.1659 39.821 38.2673 39.821C38.3473 39.821 38.4113 39.813 38.4593 39.797C38.5126 39.7756 38.5633 39.7383 38.6113 39.685C38.6806 39.6156 38.7366 39.4743 38.7793 39.261C38.8273 39.0423 38.8673 38.7356 38.8993 38.341C38.9313 37.9463 38.9606 37.4476 38.9873 36.845C39.0139 36.2423 39.0379 35.525 39.0593 34.693V34.509ZM37.0753 33.277L38.0033 33.493C37.9019 33.8823 37.7766 34.2716 37.6273 34.661C37.4833 35.0503 37.3233 35.4183 37.1473 35.765C36.9766 36.1063 36.8006 36.405 36.6193 36.661C36.5659 36.6076 36.4886 36.5463 36.3873 36.477C36.2913 36.4023 36.1926 36.3303 36.0913 36.261C35.9953 36.1916 35.9099 36.1383 35.8353 36.101C36.0113 35.8716 36.1766 35.6076 36.3313 35.309C36.4913 35.005 36.6326 34.6796 36.7553 34.333C36.8833 33.981 36.9899 33.629 37.0753 33.277ZM36.6833 36.821L37.4353 36.397C37.5686 36.5783 37.7099 36.7783 37.8593 36.997C38.0086 37.2156 38.1499 37.429 38.2833 37.637C38.4166 37.845 38.5259 38.029 38.6113 38.189L37.7953 38.685C37.7206 38.5196 37.6193 38.3303 37.4913 38.117C37.3686 37.9036 37.2353 37.685 37.0913 37.461C36.9526 37.2316 36.8166 37.0183 36.6833 36.821ZM43.9713 33.725H47.8753V34.645H43.9713V33.725ZM45.9953 36.221H46.9793V39.677C46.9793 39.9276 46.9473 40.125 46.8833 40.269C46.8246 40.4183 46.7073 40.5303 46.5313 40.605C46.3553 40.6743 46.1393 40.717 45.8833 40.733C45.6273 40.7543 45.3206 40.765 44.9633 40.765C44.9419 40.6263 44.9019 40.461 44.8433 40.269C44.7899 40.0823 44.7313 39.9223 44.6673 39.789C44.8219 39.7943 44.9766 39.7996 45.1313 39.805C45.2859 39.8103 45.4246 39.813 45.5473 39.813C45.6699 39.8076 45.7553 39.805 45.8033 39.805C45.8779 39.805 45.9286 39.7943 45.9553 39.773C45.9819 39.7463 45.9953 39.7063 45.9953 39.653V36.221ZM43.6273 35.949H48.0833V36.861H43.6273V35.949ZM41.8273 36.893L42.6673 36.045L42.7873 36.093V40.797H41.8273V36.893ZM42.7313 35.013L43.6433 35.365C43.4353 35.717 43.1926 36.0716 42.9153 36.429C42.6433 36.781 42.3553 37.1143 42.0513 37.429C41.7526 37.7436 41.4593 38.0183 41.1713 38.253C41.1286 38.1836 41.0673 38.0983 40.9873 37.997C40.9073 37.8903 40.8246 37.7836 40.7393 37.677C40.6593 37.5703 40.5846 37.485 40.5153 37.421C40.7926 37.229 41.0673 37.005 41.3393 36.749C41.6113 36.4876 41.8673 36.2103 42.1073 35.917C42.3473 35.6183 42.5553 35.317 42.7313 35.013ZM42.4273 33.269L43.3553 33.653C43.1579 33.9036 42.9366 34.1596 42.6913 34.421C42.4459 34.677 42.1899 34.9223 41.9233 35.157C41.6566 35.3916 41.3953 35.597 41.1393 35.773C41.1019 35.6983 41.0513 35.613 40.9873 35.517C40.9233 35.4156 40.8566 35.317 40.7873 35.221C40.7233 35.125 40.6619 35.045 40.6033 34.981C40.8273 34.8423 41.0539 34.6743 41.2833 34.477C41.5126 34.2796 41.7286 34.077 41.9313 33.869C42.1339 33.6556 42.2993 33.4556 42.4273 33.269ZM53.4033 37.125H54.3633V40.349H53.4033V37.125ZM51.8113 36.773H55.9713V37.597H51.8113V36.773ZM51.4993 39.773H56.1473V40.613H51.4993V39.773ZM52.0033 38.261H55.7793V39.069H52.0033V38.261ZM52.9553 34.381V35.485H54.8273V34.381H52.9553ZM52.0673 33.573H55.7553V36.293H52.0673V33.573ZM49.8753 34.021H50.8033V40.781H49.8753V34.021ZM48.7233 35.525H51.6593V36.413H48.7233V35.525ZM49.9233 35.885L50.4833 36.125C50.4086 36.413 50.3179 36.7116 50.2113 37.021C50.1046 37.3303 49.9873 37.637 49.8593 37.941C49.7313 38.2396 49.5953 38.5223 49.4513 38.789C49.3073 39.0556 49.1579 39.2876 49.0033 39.485C48.9553 39.3463 48.8859 39.1916 48.7953 39.021C48.7099 38.845 48.6299 38.6956 48.5553 38.573C48.6939 38.413 48.8299 38.2263 48.9633 38.013C49.1019 37.7943 49.2326 37.5623 49.3553 37.317C49.4779 37.0716 49.5873 36.8263 49.6833 36.581C49.7793 36.3356 49.8593 36.1036 49.9233 35.885ZM51.1153 33.357L51.7633 34.093C51.4913 34.1943 51.1926 34.2876 50.8673 34.373C50.5419 34.4583 50.2086 34.533 49.8673 34.597C49.5313 34.6556 49.2086 34.7063 48.8993 34.749C48.8779 34.6423 48.8406 34.5196 48.7873 34.381C48.7339 34.237 48.6806 34.1143 48.6273 34.013C48.9206 33.965 49.2193 33.909 49.5233 33.845C49.8326 33.7756 50.1233 33.6983 50.3953 33.613C50.6726 33.5276 50.9126 33.4423 51.1153 33.357ZM50.7873 36.637C50.8353 36.6743 50.9073 36.7436 51.0033 36.845C51.1046 36.941 51.2113 37.0476 51.3233 37.165C51.4406 37.2823 51.5446 37.3916 51.6353 37.493C51.7259 37.589 51.7926 37.6583 51.8353 37.701L51.2833 38.461C51.2353 38.3596 51.1713 38.245 51.0913 38.117C51.0166 37.989 50.9339 37.8556 50.8433 37.717C50.7579 37.5783 50.6726 37.4476 50.5873 37.325C50.5019 37.197 50.4273 37.093 50.3633 37.013L50.7873 36.637Z" fill="white"/>
</svg>
