<svg width="17" height="16" viewBox="0 0 17 16" fill="none" xmlns="http://www.w3.org/2000/svg">
<g clip-path="url(#clip0_2273_2586)">
<path d="M13.2749 1.37164H4.13074V8.22977H6.18817V9.37279L8.47422 8.22977H13.2749V1.37164Z" stroke="#333333" stroke-linecap="round" stroke-linejoin="round"/>
<path d="M6.41675 4.45776V5.14358" stroke="#333333" stroke-linecap="round" stroke-linejoin="round"/>
<path d="M8.70282 4.45776V5.14358" stroke="#333333" stroke-linecap="round" stroke-linejoin="round"/>
<path d="M10.9888 4.45776V5.14358" stroke="#333333" stroke-linecap="round" stroke-linejoin="round"/>
</g>
<path d="M6.508 14.1843H8.413V14.5263H6.508V14.1843ZM6.577 12.8343H8.299V13.1763H6.577V12.8343ZM7.279 12.9123H7.642V15.5103H7.279V12.9123ZM7.966 13.2903L8.311 13.3623C8.287 13.4463 8.262 13.5323 8.236 13.6203C8.21 13.7083 8.184 13.7913 8.158 13.8693C8.134 13.9473 8.109 14.0173 8.083 14.0793L7.801 14.0043C7.823 13.9403 7.845 13.8663 7.867 13.7823C7.889 13.6983 7.908 13.6133 7.924 13.5273C7.942 13.4413 7.956 13.3623 7.966 13.2903ZM6.637 13.3623L6.94 13.2903C6.966 13.3623 6.989 13.4403 7.009 13.5243C7.031 13.6083 7.05 13.6903 7.066 13.7703C7.084 13.8483 7.096 13.9193 7.102 13.9833L6.781 14.0643C6.775 14.0003 6.765 13.9283 6.751 13.8483C6.737 13.7663 6.72 13.6833 6.7 13.5993C6.68 13.5153 6.659 13.4363 6.637 13.3623ZM5.731 12.9663L5.956 12.7503C6.008 12.7943 6.064 12.8433 6.124 12.8973C6.186 12.9513 6.244 13.0053 6.298 13.0593C6.354 13.1133 6.399 13.1623 6.433 13.2063L6.19 13.4553C6.16 13.4093 6.119 13.3583 6.067 13.3023C6.015 13.2463 5.959 13.1893 5.899 13.1313C5.839 13.0713 5.783 13.0163 5.731 12.9663ZM5.971 15.4743L5.89 15.1503L5.953 15.0393L6.502 14.5833C6.516 14.6313 6.536 14.6853 6.562 14.7453C6.588 14.8053 6.611 14.8533 6.631 14.8893C6.503 14.9973 6.399 15.0853 6.319 15.1533C6.239 15.2213 6.175 15.2753 6.127 15.3153C6.081 15.3573 6.047 15.3893 6.025 15.4113C6.003 15.4333 5.985 15.4543 5.971 15.4743ZM5.605 13.6203H6.139V13.9653H5.605V13.6203ZM5.971 15.4743C5.963 15.4443 5.95 15.4103 5.932 15.3723C5.914 15.3343 5.894 15.2973 5.872 15.2613C5.85 15.2253 5.83 15.1963 5.812 15.1743C5.842 15.1523 5.873 15.1193 5.905 15.0753C5.937 15.0293 5.953 14.9733 5.953 14.9073V13.6173H6.289V15.1533C6.289 15.1533 6.273 15.1643 6.241 15.1863C6.209 15.2083 6.172 15.2353 6.13 15.2673C6.088 15.3013 6.051 15.3363 6.019 15.3723C5.987 15.4083 5.971 15.4423 5.971 15.4743ZM10.639 12.8013C10.697 12.9193 10.771 13.0393 10.861 13.1613C10.953 13.2813 11.052 13.3933 11.158 13.4973C11.266 13.5993 11.374 13.6853 11.482 13.7553C11.456 13.7773 11.426 13.8053 11.392 13.8393C11.36 13.8713 11.329 13.9053 11.299 13.9413C11.271 13.9753 11.247 14.0073 11.227 14.0373C11.141 13.9733 11.056 13.8993 10.972 13.8153C10.888 13.7313 10.807 13.6403 10.729 13.5423C10.653 13.4423 10.581 13.3393 10.513 13.2333C10.445 13.1273 10.385 13.0203 10.333 12.9123L10.639 12.8013ZM10.321 12.6843L10.708 12.7533C10.636 12.9093 10.55 13.0643 10.45 13.2183C10.352 13.3723 10.238 13.5213 10.108 13.6653C9.98 13.8093 9.832 13.9433 9.664 14.0673C9.648 14.0393 9.626 14.0073 9.598 13.9713C9.572 13.9353 9.543 13.9013 9.511 13.8693C9.479 13.8353 9.45 13.8083 9.424 13.7883C9.574 13.6843 9.707 13.5703 9.823 13.4463C9.939 13.3223 10.038 13.1953 10.12 13.0653C10.204 12.9333 10.271 12.8063 10.321 12.6843ZM9.823 13.8243H10.183V14.9553C10.183 15.0193 10.194 15.0603 10.216 15.0783C10.24 15.0943 10.292 15.1023 10.372 15.1023C10.392 15.1023 10.423 15.1023 10.465 15.1023C10.507 15.1023 10.553 15.1023 10.603 15.1023C10.655 15.1023 10.703 15.1023 10.747 15.1023C10.793 15.1023 10.827 15.1023 10.849 15.1023C10.899 15.1023 10.936 15.0923 10.96 15.0723C10.986 15.0503 11.004 15.0093 11.014 14.9493C11.026 14.8893 11.035 14.8003 11.041 14.6823C11.067 14.7003 11.099 14.7193 11.137 14.7393C11.177 14.7573 11.217 14.7733 11.257 14.7873C11.299 14.8013 11.335 14.8123 11.365 14.8203C11.351 14.9763 11.328 15.0983 11.296 15.1863C11.264 15.2743 11.215 15.3363 11.149 15.3723C11.085 15.4083 10.994 15.4263 10.876 15.4263C10.86 15.4263 10.833 15.4263 10.795 15.4263C10.759 15.4263 10.718 15.4263 10.672 15.4263C10.626 15.4263 10.58 15.4263 10.534 15.4263C10.49 15.4263 10.45 15.4263 10.414 15.4263C10.378 15.4263 10.352 15.4263 10.336 15.4263C10.202 15.4263 10.097 15.4123 10.021 15.3843C9.947 15.3563 9.895 15.3083 9.865 15.2403C9.837 15.1723 9.823 15.0783 9.823 14.9583V13.8243ZM10.891 13.9293L11.125 14.2353C11.021 14.2953 10.909 14.3563 10.789 14.4183C10.669 14.4783 10.549 14.5353 10.429 14.5893C10.311 14.6413 10.201 14.6863 10.099 14.7243L9.91 14.4543C10.008 14.4143 10.116 14.3653 10.234 14.3073C10.354 14.2493 10.471 14.1873 10.585 14.1213C10.701 14.0553 10.803 13.9913 10.891 13.9293ZM8.755 12.9633L8.977 12.7233C9.037 12.7673 9.104 12.8173 9.178 12.8733C9.252 12.9293 9.321 12.9853 9.385 13.0413C9.451 13.0973 9.505 13.1473 9.547 13.1913L9.307 13.4643C9.271 13.4183 9.221 13.3663 9.157 13.3083C9.093 13.2483 9.025 13.1883 8.953 13.1283C8.883 13.0663 8.817 13.0113 8.755 12.9633ZM9.046 15.4923L8.965 15.1563L9.034 15.0453L9.601 14.5893C9.615 14.6393 9.634 14.6943 9.658 14.7543C9.684 14.8143 9.707 14.8623 9.727 14.8983C9.593 15.0063 9.485 15.0953 9.403 15.1653C9.321 15.2333 9.256 15.2883 9.208 15.3303C9.16 15.3723 9.124 15.4053 9.1 15.4293C9.078 15.4533 9.06 15.4743 9.046 15.4923ZM8.596 13.6203H9.214V13.9653H8.596V13.6203ZM9.046 15.4923C9.036 15.4663 9.02 15.4373 8.998 15.4053C8.976 15.3733 8.953 15.3423 8.929 15.3123C8.905 15.2823 8.883 15.2593 8.863 15.2433C8.885 15.2233 8.907 15.1983 8.929 15.1683C8.953 15.1363 8.973 15.0993 8.989 15.0573C9.005 15.0133 9.013 14.9653 9.013 14.9133V13.6203H9.358V15.1053C9.358 15.1053 9.347 15.1143 9.325 15.1323C9.303 15.1503 9.277 15.1743 9.247 15.2043C9.217 15.2343 9.186 15.2663 9.154 15.3003C9.124 15.3363 9.098 15.3703 9.076 15.4023C9.056 15.4363 9.046 15.4663 9.046 15.4923Z" fill="white"/>
<defs>
<clipPath id="clip0_2273_2586">
<rect width="10.973" height="10.973" fill="white" transform="translate(3.21631)"/>
</clipPath>
</defs>
</svg>
